<svg width="23" height="23" viewBox="0 0 23 23" fill="none" xmlns="http://www.w3.org/2000/svg">
<path fill-rule="evenodd" clip-rule="evenodd" d="M0.000712839 9.44021C0.000712839 4.55955 4.14723 0.909729 8.88928 0.909729C13.6313 0.909729 17.7778 4.55955 17.7778 9.44021C17.7778 14.3209 13.6313 17.9707 8.88928 17.9707C7.66349 17.9741 6.44765 17.7295 5.30274 17.2493L1.28733 17.9561C1.10044 17.989 0.908971 17.969 0.731093 17.898C0.553215 17.827 0.394826 17.7073 0.270951 17.5503C0.147076 17.3934 0.0618224 17.2043 0.0232781 17.001C-0.0152663 16.7977 -0.00582338 16.587 0.0507111 16.3889L0.939567 13.2655C0.32618 12.1028 0.00239814 10.7836 0.000712839 9.44021ZM8.88928 19.3928C7.84265 19.3928 6.82824 19.2429 5.87161 18.9651C7.48488 21.3378 10.2859 22.8452 13.3336 22.8452C14.6057 22.8452 15.819 22.5893 16.9201 22.1238L20.9355 22.8306C21.1224 22.8636 21.3139 22.8436 21.4917 22.7726C21.6696 22.7016 21.828 22.5819 21.9519 22.4249C22.0758 22.2679 22.161 22.0788 22.1996 21.8756C22.2381 21.6723 22.2287 21.4616 22.1721 21.2634L21.2833 18.1401C21.8967 16.9773 22.2204 15.6581 22.2221 14.3148C22.2221 11.6679 21.0022 9.38293 19.13 7.84623C19.2144 8.36293 19.2589 8.89426 19.2589 9.44021C19.2589 15.1349 14.4224 19.3928 8.88928 19.3928Z" fill="#4A307F"/>
</svg>
