<svg width="30" height="27" viewBox="0 0 30 27" fill="none" xmlns="http://www.w3.org/2000/svg">
<path d="M22.8756 26.6871C22.649 26.688 22.4256 26.6363 22.2239 26.5363L14.9989 22.8757L7.77393 26.5363C7.53932 26.6557 7.27481 26.709 7.01046 26.6902C6.74611 26.6713 6.49252 26.581 6.27854 26.4296C6.06455 26.2783 5.89875 26.0718 5.79997 25.8338C5.70119 25.5957 5.6734 25.3356 5.71976 25.083L7.13643 17.3642L1.29976 11.8801C1.11766 11.7042 0.988483 11.4837 0.926087 11.2422C0.863692 11.0006 0.870437 10.7472 0.945598 10.5091C1.02771 10.2654 1.17875 10.0489 1.38158 9.88412C1.58441 9.71933 1.8309 9.61287 2.0931 9.5768L10.1681 8.43885L13.7239 1.40552C13.8399 1.17372 14.0211 0.978228 14.2466 0.841443C14.4721 0.704658 14.7328 0.632111 14.9989 0.632111C15.2651 0.632111 15.5258 0.704658 15.7513 0.841443C15.9768 0.978228 16.1579 1.17372 16.2739 1.40552L19.8723 8.42514L27.9473 9.56309C28.2095 9.59915 28.456 9.70562 28.6588 9.87041C28.8616 10.0352 29.0127 10.2517 29.0948 10.4954C29.1699 10.7335 29.1767 10.9869 29.1143 11.2285C29.0519 11.47 28.9227 11.6905 28.7406 11.8664L22.9039 17.3505L24.3206 25.0693C24.3712 25.3264 24.3447 25.592 24.2443 25.835C24.1439 26.0779 23.9737 26.288 23.7539 26.4403C23.4974 26.6143 23.1885 26.7011 22.8756 26.6871Z" fill="#4A307F"/>
</svg>
