<svg width="21" height="28" viewBox="0 0 21 28" fill="none" xmlns="http://www.w3.org/2000/svg">
<path d="M10.5 14.1014C13.8141 14.1014 16.5 11.1554 16.5 7.52047C16.5 3.88555 13.8141 0.939575 10.5 0.939575C7.18594 0.939575 4.5 3.88555 4.5 7.52047C4.5 11.1554 7.18594 14.1014 10.5 14.1014ZM14.7 15.7466H13.9172C12.8766 16.271 11.7188 16.5692 10.5 16.5692C9.28125 16.5692 8.12813 16.271 7.08281 15.7466H6.3C2.82187 15.7466 0 18.8417 0 22.6565V24.7953C0 26.1578 1.00781 27.2632 2.25 27.2632H18.75C19.9922 27.2632 21 26.1578 21 24.7953V22.6565C21 18.8417 18.1781 15.7466 14.7 15.7466Z" fill="#4A307F"/>
</svg>
